HIERARCHY
ROOT Hips
{
    OFFSET 0.000000 0.000000 0.000000
    CHANNELS 6 Xposition Yposition Zposition Zrotation Xrotation Yrotation
    JOINT Spine
    {
        OFFSET -0.000000 14.517291 0.000000
        CHANNELS 3 Zrotation Xrotation Yrotation
        JOINT Spine1
        {
            OFFSET -0.000000 37.558300 0.000000
            CHANNELS 3 Zrotation Xrotation Yrotation
            JOINT Neck
            {
                OFFSET -0.000000 37.404057 3.400369
                CHANNELS 3 Zrotation Xrotation Yrotation
                JOINT Head
                {
                    OFFSET -0.000000 24.785618 -3.540803
                    CHANNELS 3 Zrotation Xrotation Yrotation
                    End Site
                    {
                        OFFSET -0.000000 35.408028 0.000000
                    }
                }
            }
            JOINT LeftShoulder
            {
                OFFSET 6.992933 33.973492 -0.192664
                CHANNELS 3 Zrotation Xrotation Yrotation
                JOINT LeftArm
                {
                    OFFSET 21.527611 0.000000 0.000000
                    CHANNELS 3 Zrotation Xrotation Yrotation
                    JOINT LeftForeArm
                    {
                        OFFSET 56.353916 0.000000 0.000000
                        CHANNELS 3 Zrotation Xrotation Yrotation
                        JOINT LeftHand
                        {
                            OFFSET 47.774071 0.000000 0.000000
                            CHANNELS 3 Zrotation Xrotation Yrotation
                            End Site
                            {
                                OFFSET 26.556021 0.000000 0.000000
                            }
                        }
                    }
                }
            }
            JOINT RightShoulder
            {
                OFFSET -7.065357 33.973492 -0.192664
                CHANNELS 3 Zrotation Xrotation Yrotation
                JOINT RightArm
                {
                    OFFSET -21.527611 0.000000 0.000000
                    CHANNELS 3 Zrotation Xrotation Yrotation
                    JOINT RightForeArm
                    {
                        OFFSET -56.353916 0.000000 0.000000
                        CHANNELS 3 Zrotation Xrotation Yrotation
                        JOINT RightHand
                        {
                            OFFSET -47.774071 0.000000 0.000000
                            CHANNELS 3 Zrotation Xrotation Yrotation
                            End Site
                            {
                                OFFSET -26.556021 0.000000 0.000000
                            }
                        }
                    }
                }
            }
        }
    }
    JOINT LeftUpLeg
    {
        OFFSET 17.704014 0.000000 0.000000
        CHANNELS 3 Zrotation Xrotation Yrotation
        JOINT LeftLeg
        {
            OFFSET -0.000000 -81.181816 0.000000
            CHANNELS 3 Zrotation Xrotation Yrotation
            JOINT LeftFoot
            {
                OFFSET -0.000000 -62.821102 0.000000
                CHANNELS 3 Zrotation Xrotation Yrotation
                JOINT LeftToeBase
                {
                    OFFSET -0.000000 -11.507608 26.556021
                    CHANNELS 3 Zrotation Xrotation Yrotation
                    End Site
                    {
                        OFFSET -0.000000 0.000000 7.081605
                    }
                }
            }
        }
    }
    JOINT RightUpLeg
    {
        OFFSET -17.704014 0.000000 0.000000
        CHANNELS 3 Zrotation Xrotation Yrotation
        JOINT RightLeg
        {
            OFFSET -0.000000 -81.181816 0.000000
            CHANNELS 3 Zrotation Xrotation Yrotation
            JOINT RightFoot
            {
                OFFSET -0.000000 -62.821102 0.000000
                CHANNELS 3 Zrotation Xrotation Yrotation
                JOINT RightToeBase
                {
                    OFFSET -0.000000 -11.507608 26.556021
                    CHANNELS 3 Zrotation Xrotation Yrotation
                    End Site
                    {
                        OFFSET -0.000000 0.000000 7.081605
                    }
                }
            }
        }
    }
}
MOTION
Frames:    10
Frame Time:    0.008333
8.472222    157.182175    -7.255536    -1.978381    7.973453    -7.696642    2.062152    0.994503    10.222572    -3.327733    -1.429279    3.372123    7.293370    -3.784416    -3.296947    3.316128    1.585957    -4.335131    4.289462    1.911170    -8.489488    -41.380676    12.906377    -43.048393    -3.175170    -26.320257    -122.286629    -2.718250    -31.269035    -5.105478    -13.669670    -0.629051    5.393481    31.281946    -19.934500    74.004601    -3.676241    -16.761015    34.209637    9.021997    -12.269351    42.417397    11.466290    -35.907959    -11.816024    -15.085723    28.506182    -14.523281    -0.924843    -1.654223    40.539162    0.000000    0.000000    0.000000    -2.860138    11.354106    -20.293011    1.763288    11.398079    -7.481741    18.118952    -9.685616    -6.419690    0.000000    0.000000    0.000000    
8.163107    157.116653    -7.825056    -1.987978    7.856682    -7.747620    2.101012    0.976482    10.223755    -3.348807    -1.407632    3.372888    7.222656    -3.781320    -3.287706    3.421570    1.623297    -4.299876    4.273549    1.932755    -8.438204    -41.502750    12.916297    -42.952736    -3.228726    -26.235241    -122.336754    -2.587641    -31.283133    -5.013088    -13.675107    -0.585257    5.392095    31.327997    -19.970600    74.014977    -3.587577    -16.567007    34.275902    8.984221    -12.112994    42.387390    11.675979    -35.863796    -11.670485    -14.998570    28.266127    -14.477836    -1.269425    -1.484557    40.475433    0.000000    0.000000    0.000000    -2.648605    11.430001    -20.417995    1.822538    11.175635    -7.709217    17.690281    -10.060511    -6.196058    0.000000    0.000000    0.000000    
7.866625    157.057037    -8.391092    -2.002795    7.744010    -7.781944    2.157114    0.945914    10.231619    -3.353598    -1.347791    3.377195    7.238309    -3.788218    -3.280355    3.342338    1.596986    -4.304955    4.196730    1.917448    -8.415158    -41.590912    12.923259    -42.807423    -3.234051    -26.184479    -122.379288    -2.654571    -31.244959    -5.025266    -13.730992    -0.572746    5.338566    31.397139    -19.975180    74.037483    -3.500864    -16.414642    34.323421    8.987893    -11.973371    42.471519    11.873590    -35.826359    -11.560344    -14.924548    28.017776    -14.431987    -1.585213    -1.272192    40.434971    0.000000    0.000000    0.000000    -2.432151    11.474398    -20.586897    1.800477    10.999588    -7.780283    17.400623    -10.417808    -6.002461    0.000000    0.000000    0.000000    
7.570639    156.989594    -8.946826    -1.999280    7.602478    -7.820310    2.163205    0.986983    10.237247    -3.352313    -1.368249    3.378737    7.158183    -3.861384    -3.289049    3.424612    1.681584    -4.295891    4.140219    1.925945    -8.324510    -41.646725    12.970550    -42.744259    -3.287126    -26.086014    -122.421265    -2.509747    -31.245247    -4.958280    -13.774585    -0.571490    5.275348    31.442171    -19.934134    74.033119    -3.397949    -16.278332    34.405499    8.890655    -11.907800    42.384022    12.040243    -35.744995    -11.445938    -14.822925    27.753927    -14.415110    -1.909274    -1.077783    40.382866    0.000000    0.000000    0.000000    -2.212761    11.554593    -20.801968    1.779170    10.777153    -7.826566    17.023441    -10.802552    -5.886270    0.000000    0.000000    0.000000    
7.277690    156.926086    -9.480546    -1.994384    7.446022    -7.832547    2.162724    0.948800    10.217035    -3.330093    -1.289613    3.374303    7.185859    -3.863974    -3.261002    3.391583    1.700293    -4.276707    4.097980    1.951594    -8.288937    -41.706501    12.997322    -42.672836    -3.286222    -26.082476    -122.422630    -2.521153    -31.240021    -4.976706    -13.777813    -0.521794    5.254981    31.310143    -19.909924    73.995064    -3.374400    -16.274551    34.407700    8.901655    -11.905847    42.395016    12.177284    -35.634811    -11.386477    -14.722247    27.459614    -14.397606    -2.205516    -0.869483    40.347286    0.000000    0.000000    0.000000    -2.031750    11.670750    -20.896519    1.836803    10.559792    -7.979589    16.670286    -11.159769    -5.722416    0.000000    0.000000    0.000000    
6.984213    156.850708    -10.006917    -1.977140    7.312938    -7.846379    2.179262    0.892320    10.212950    -3.375057    -1.246805    3.373384    7.171898    -3.794405    -3.273536    3.458295    1.677572    -4.273577    4.087057    1.973093    -8.286954    -41.771633    12.991476    -42.579536    -3.324822    -26.010298    -122.432281    -2.385499    -31.239418    -4.880211    -13.769214    -0.480230    5.227515    31.308260    -19.914295    73.971710    -3.242680    -16.193624    34.400673    8.914924    -11.851748    42.470688    12.316315    -35.550041    -11.330939    -14.647928    27.166027    -14.369522    -2.512549    -0.683819    40.336647    0.000000    0.000000    0.000000    -1.840341    11.744042    -21.068340    1.809756    10.370021    -8.138155    16.384541    -11.508119    -5.471359    0.000000    0.000000    0.000000    
6.698996    156.779053    -10.528602    -1.961812    7.162487    -7.860713    2.225042    0.878395    10.175782    -3.433886    -1.232103    3.360838    7.186576    -3.748026    -3.242335    3.432074    1.687001    -4.244452    4.055516    2.000959    -8.246864    -41.808540    12.999661    -42.479401    -3.350129    -26.027699    -122.443573    -2.434741    -31.295515    -4.857885    -13.826310    -0.387871    5.235473    31.321823    -19.933092    74.003319    -3.159639    -16.158960    34.371979    8.905294    -11.850254    42.423576    12.430080    -35.434128    -11.256129    -14.513021    26.868057    -14.342384    -2.816764    -0.504236    40.266376    0.000000    0.000000    0.000000    -1.676818    11.850500    -21.163576    1.827707    10.188046    -8.130819    15.938032    -11.934014    -5.351104    0.000000    0.000000    0.000000    
6.424191    156.708984    -11.056190    -1.937341    7.038149    -7.854459    2.213008    0.816078    10.152161    -3.441877    -1.224524    3.352656    7.151622    -3.642358    -3.252390    3.514333    1.650366    -4.230215    4.051181    2.068039    -8.260490    -41.889168    12.943563    -42.415863    -3.387938    -25.929913    -122.418938    -2.359758    -31.262033    -4.827748    -13.816754    -0.350855    5.268206    31.219223    -19.942728    73.907936    -3.029341    -16.135267    34.330952    8.918274    -11.862748    42.412632    12.528468    -35.353539    -11.247434    -14.413254    26.553341    -14.290938    -3.116680    -0.300303    40.230297    0.000000    0.000000    0.000000    -1.513358    11.898737    -21.215849    1.832781    10.037116    -8.182799    15.560857    -12.329473    -5.251150    0.000000    0.000000    0.000000    
6.128209    156.643463    -11.561290    -1.934727    6.924410    -7.848370    2.249096    0.755304    10.109486    -3.490021    -1.190023    3.338647    7.216050    -3.668247    -3.240478    3.419110    1.749562    -4.246327    4.046302    2.075660    -8.202160    -41.902016    12.979492    -42.348370    -3.403801    -25.955456    -122.425232    -2.397560    -31.309841    -4.856067    -13.840608    -0.355519    5.249200    31.206591    -19.892056    73.885254    -2.932714    -16.104273    34.316223    8.952191    -11.847916    42.411827    12.665248    -35.280273    -11.157027    -14.302594    26.277073    -14.277595    -3.429540    -0.117152    40.183071    0.000000    0.000000    0.000000    -1.321171    11.966141    -21.271183    1.857051    9.833078    -8.216331    15.301311    -12.653487    -5.227779    0.000000    0.000000    0.000000    
5.851859    156.573715    -12.068214    -1.937022    6.815944    -7.828304    2.280118    0.686925    10.073161    -3.507480    -1.164058    3.326754    7.188782    -3.669861    -3.226200    3.464278    1.828371    -4.223200    4.014547    2.064149    -8.174418    -41.945614    13.005614    -42.283180    -3.387887    -25.955420    -122.401001    -2.431678    -31.281172    -4.843493    -13.867628    -0.339591    5.234105    31.166241    -19.885731    73.843124    -2.796154    -16.077866    34.307697    8.965952    -11.862997    42.346458    12.788136    -35.222652    -11.108795    -14.201319    26.008150    -14.232543    -3.711746    0.080023    40.126144    0.000000    0.000000    0.000000    -1.139753    12.017472    -21.338575    1.853710    9.669065    -8.132168    14.947295    -13.021955    -5.191038    0.000000    0.000000    0.000000    
